<svg width="81" height="75" viewBox="0 0 81 75" fill="none" xmlns="http://www.w3.org/2000/svg">
<g filter="url(#filter0_d)">
<path d="M75.9847 33.6028C75.9847 51.3489 60.051 65.8189 40.2869 65.8189C20.5229 65.8189 4.58923 51.3489 4.58923 33.6028C4.58923 15.8567 20.5229 1.38672 40.2869 1.38672C60.051 1.38672 75.9847 15.8567 75.9847 33.6028Z" stroke="#46494B"/>
</g>
<path d="M59.8034 30.6835C60.1067 30.4669 60.5577 30.6695 60.5577 31.0119V45.2987C60.5577 47.1501 58.8857 48.6521 56.8248 48.6521H24.4731C22.4123 48.6521 20.7402 47.1501 20.7402 45.2987V31.0189C20.7402 30.6695 21.1835 30.4739 21.4946 30.6905C23.2366 31.9061 25.5463 33.4501 33.4787 38.6269C35.1196 39.7028 37.8882 41.9663 40.649 41.9523C43.4253 41.9733 46.2483 39.6608 47.827 38.6269C55.7594 33.4501 58.0614 31.8991 59.8034 30.6835ZM40.649 39.7097C42.4532 39.7377 45.0507 37.6698 46.3572 36.8174C56.6771 30.0897 57.4625 29.5028 59.8423 27.8261C60.2933 27.5118 60.5577 27.0227 60.5577 26.5057V25.1783C60.5577 23.327 58.8857 21.825 56.8248 21.825H24.4731C22.4123 21.825 20.7402 23.327 20.7402 25.1783V26.5057C20.7402 27.0227 21.0046 27.5048 21.4557 27.8261C23.8354 29.4959 24.6209 30.0897 34.9408 36.8174C36.2473 37.6698 38.8447 39.7377 40.649 39.7097Z" fill="#08D665"/>
<defs>
<filter id="filter0_d" x="0.0892334" y="0.886719" width="80.3954" height="73.4322" filterUnits="userSpaceOnUse" color-interpolation-filters="sRGB">
<feFlood flood-opacity="0" result="BackgroundImageFix"/>
<feColorMatrix in="SourceAlpha" type="matrix" values="0 0 0 0 0 0 0 0 0 0 0 0 0 0 0 0 0 0 127 0"/>
<feOffset dy="4"/>
<feGaussianBlur stdDeviation="2"/>
<feColorMatrix type="matrix" values="0 0 0 0 0 0 0 0 0 0 0 0 0 0 0 0 0 0 0.25 0"/>
<feBlend mode="normal" in2="BackgroundImageFix" result="effect1_dropShadow"/>
<feBlend mode="normal" in="SourceGraphic" in2="effect1_dropShadow" result="shape"/>
</filter>
</defs>
</svg>
