<svg width="55" height="55" viewBox="0 0 55 55" fill="none" xmlns="http://www.w3.org/2000/svg">
<g clip-path="url(#clip0)">
<path d="M39.6744 18.3369C42.9166 18.3369 46.0259 17.371 48.3185 15.6515C50.611 13.9321 51.899 11.6001 51.899 9.16846C51.899 6.73683 50.611 4.4048 48.3185 2.68538C46.0259 0.96596 42.9166 0 39.6744 0L15.2252 0C11.9849 0 8.87736 0.965394 6.58614 2.68381C4.29493 4.40222 3.00773 6.73288 3.00773 9.16309C3.00773 11.5933 4.29493 13.924 6.58614 15.6424C8.87736 17.3608 11.9849 18.3262 15.2252 18.3262C11.983 18.3262 8.87363 19.2921 6.58108 21.0116C4.28852 22.731 3.00057 25.063 3.00057 27.4946C3.00057 29.9263 4.28852 32.2583 6.58108 33.9777C8.87363 35.6971 11.983 36.6631 15.2252 36.6631C12.8074 36.662 10.4435 37.1987 8.43235 38.2053C6.42123 39.2118 4.85326 40.6431 3.9267 42.318C3.00014 43.9929 2.75661 45.8362 3.22691 47.6149C3.69721 49.3937 4.86022 51.0278 6.56886 52.3108C8.27749 53.5938 10.455 54.468 12.8261 54.8228C15.1972 55.1776 17.6553 54.9971 19.8896 54.3041C22.1239 53.6112 24.034 52.4369 25.3784 50.9297C26.7229 49.4226 27.4412 47.6503 27.4426 45.8369V18.3369H39.6744ZM39.6744 18.3369C37.258 18.3369 34.8959 18.8743 32.8867 19.8812C30.8776 20.888 29.3116 22.3191 28.3869 23.9934C27.4622 25.6678 27.2203 27.5102 27.6917 29.2876C28.1631 31.0651 29.3267 32.6978 31.0354 33.9793C32.744 35.2608 34.9209 36.1335 37.2909 36.487C39.6608 36.8406 42.1174 36.6591 44.3498 35.9656C46.5822 35.2721 48.4904 34.0976 49.8328 32.5907C51.1753 31.0839 51.8918 29.3123 51.8918 27.5C51.8914 25.0699 50.6041 22.7394 48.313 21.021C46.0219 19.3027 42.9145 18.3372 39.6744 18.3369Z" fill="#A259FF"/>
</g>
<defs>
<clipPath id="clip0">
<rect width="55" height="55" fill="white"/>
</clipPath>
</defs>
</svg>
