<svg width="55" height="52" viewBox="0 0 55 52" fill="none" xmlns="http://www.w3.org/2000/svg">
<path d="M18.3962 41.8301C18.3962 42.0449 18.1411 42.2168 17.8196 42.2168C17.4536 42.249 17.1986 42.0771 17.1986 41.8301C17.1986 41.6152 17.4536 41.4434 17.7752 41.4434C18.1079 41.4111 18.3962 41.583 18.3962 41.8301ZM14.9476 41.3467C14.87 41.5615 15.0917 41.8086 15.4244 41.873C15.7127 41.9805 16.0454 41.873 16.1119 41.6582C16.1784 41.4434 15.9677 41.1963 15.6351 41.0996C15.3468 41.0244 15.0252 41.1318 14.9476 41.3467ZM19.8488 41.1641C19.5272 41.2393 19.3054 41.4434 19.3387 41.6904C19.372 41.9053 19.6603 42.0449 19.9929 41.9697C20.3145 41.8945 20.5363 41.6904 20.503 41.4756C20.4698 41.2715 20.1704 41.1318 19.8488 41.1641ZM27.1452 0C11.7651 0 0 11.3115 0 26.2109C0 38.124 7.73992 48.3184 18.7954 51.9062C20.2147 52.1533 20.7137 51.3047 20.7137 50.6064C20.7137 49.9404 20.6804 46.2666 20.6804 44.0107C20.6804 44.0107 12.9183 45.6221 11.2883 40.8096C11.2883 40.8096 10.0242 37.6836 8.20564 36.8779C8.20564 36.8779 5.66633 35.1914 8.38306 35.2236C8.38306 35.2236 11.1442 35.4385 12.6633 37.9951C15.0917 42.1416 19.1613 40.9492 20.747 40.2402C21.002 38.5215 21.7228 37.3291 22.5212 36.6201C16.3226 35.9541 10.0685 35.084 10.0685 24.75C10.0685 21.7959 10.9113 20.3135 12.6855 18.4229C12.3972 17.7246 11.4546 14.8457 12.9738 11.1289C15.2913 10.4307 20.625 14.0293 20.625 14.0293C22.8427 13.4277 25.2268 13.1162 27.5887 13.1162C29.9506 13.1162 32.3347 13.4277 34.5524 14.0293C34.5524 14.0293 39.8861 10.4199 42.2036 11.1289C43.7228 14.8564 42.7802 17.7246 42.4919 18.4229C44.2661 20.3242 45.3528 21.8066 45.3528 24.75C45.3528 35.1162 38.8216 35.9434 32.623 36.6201C33.6431 37.4688 34.5081 39.0801 34.5081 41.6045C34.5081 45.2246 34.4748 49.7041 34.4748 50.585C34.4748 51.2832 34.9849 52.1318 36.3931 51.8848C47.4819 48.3184 55 38.124 55 26.2109C55 11.3115 42.5252 0 27.1452 0ZM10.7782 37.0498C10.6341 37.1572 10.6673 37.4043 10.8558 37.6084C11.0333 37.7803 11.2883 37.8555 11.4325 37.7158C11.5766 37.6084 11.5433 37.3613 11.3548 37.1572C11.1774 36.9854 10.9224 36.9102 10.7782 37.0498ZM9.58065 36.1797C9.50302 36.3193 9.61391 36.4912 9.83568 36.5986C10.0131 36.7061 10.2349 36.6738 10.3125 36.5234C10.3901 36.3838 10.2792 36.2119 10.0575 36.1045C9.83568 36.04 9.65827 36.0723 9.58065 36.1797ZM13.1734 40.0039C12.996 40.1436 13.0625 40.4658 13.3175 40.6699C13.5726 40.917 13.8942 40.9492 14.0383 40.7773C14.1825 40.6377 14.1159 40.3154 13.8942 40.1113C13.6502 39.8643 13.3175 39.832 13.1734 40.0039ZM11.9093 38.4248C11.7319 38.5322 11.7319 38.8115 11.9093 39.0586C12.0867 39.3057 12.3861 39.4131 12.5302 39.3057C12.7077 39.166 12.7077 38.8867 12.5302 38.6396C12.375 38.3926 12.0867 38.2852 11.9093 38.4248Z" fill="#F1502F"/>
</svg>
