<svg width="120" height="115" viewBox="0 0 120 115" fill="none" xmlns="http://www.w3.org/2000/svg">
<path d="M40.1371 92.1406C40.1371 92.6094 39.5806 92.9844 38.879 92.9844C38.0806 93.0547 37.5242 92.6797 37.5242 92.1406C37.5242 91.6719 38.0806 91.2969 38.7823 91.2969C39.5081 91.2266 40.1371 91.6016 40.1371 92.1406ZM32.6129 91.0859C32.4435 91.5547 32.9274 92.0937 33.6532 92.2344C34.2823 92.4687 35.0081 92.2344 35.1532 91.7656C35.2984 91.2969 34.8387 90.7578 34.1129 90.5469C33.4839 90.3828 32.7823 90.6172 32.6129 91.0859ZM43.3065 90.6875C42.6048 90.8516 42.121 91.2969 42.1935 91.8359C42.2661 92.3047 42.8952 92.6094 43.621 92.4453C44.3226 92.2813 44.8064 91.8359 44.7339 91.3672C44.6613 90.9219 44.0081 90.6172 43.3065 90.6875ZM59.2258 0.875C25.6694 0.875 0 25.5547 0 58.0625C0 84.0547 16.8871 106.297 41.0081 114.125C44.1048 114.664 45.1935 112.813 45.1935 111.289C45.1935 109.836 45.121 101.82 45.121 96.8984C45.121 96.8984 28.1855 100.414 24.629 89.9141C24.629 89.9141 21.871 83.0937 17.9032 81.3359C17.9032 81.3359 12.3629 77.6562 18.2903 77.7266C18.2903 77.7266 24.3145 78.1953 27.629 83.7734C32.9274 92.8203 41.8065 90.2188 45.2661 88.6719C45.8226 84.9219 47.3952 82.3203 49.1371 80.7734C35.6129 79.3203 21.9677 77.4219 21.9677 54.875C21.9677 48.4297 23.8065 45.1953 27.6774 41.0703C27.0484 39.5469 24.9919 33.2656 28.3065 25.1562C33.3629 23.6328 45 31.4844 45 31.4844C49.8387 30.1719 55.0403 29.4922 60.1935 29.4922C65.3468 29.4922 70.5484 30.1719 75.3871 31.4844C75.3871 31.4844 87.0242 23.6094 92.0806 25.1562C95.3952 33.2891 93.3387 39.5469 92.7097 41.0703C96.5806 45.2188 98.9516 48.4531 98.9516 54.875C98.9516 77.4922 84.7016 79.2969 71.1774 80.7734C73.4032 82.625 75.2903 86.1406 75.2903 91.6484C75.2903 99.5469 75.2177 109.32 75.2177 111.242C75.2177 112.766 76.3306 114.617 79.4032 114.078C103.597 106.297 120 84.0547 120 58.0625C120 25.5547 92.7823 0.875 59.2258 0.875ZM23.5161 81.7109C23.2016 81.9453 23.2742 82.4844 23.6855 82.9297C24.0726 83.3047 24.629 83.4688 24.9435 83.1641C25.2581 82.9297 25.1855 82.3906 24.7742 81.9453C24.3871 81.5703 23.8306 81.4062 23.5161 81.7109ZM20.9032 79.8125C20.7339 80.1172 20.9758 80.4922 21.4597 80.7266C21.8468 80.9609 22.3306 80.8906 22.5 80.5625C22.6694 80.2578 22.4274 79.8828 21.9435 79.6484C21.4597 79.5078 21.0726 79.5781 20.9032 79.8125ZM28.7419 88.1562C28.3548 88.4609 28.5 89.1641 29.0565 89.6094C29.6129 90.1484 30.3145 90.2188 30.629 89.8438C30.9435 89.5391 30.7984 88.8359 30.3145 88.3906C29.7823 87.8516 29.0565 87.7812 28.7419 88.1562ZM25.9839 84.7109C25.5968 84.9453 25.5968 85.5547 25.9839 86.0938C26.371 86.6328 27.0242 86.8672 27.3387 86.6328C27.7258 86.3281 27.7258 85.7188 27.3387 85.1797C27 84.6406 26.371 84.4063 25.9839 84.7109Z" fill="white"/>
</svg>
