<svg width="55" height="55" viewBox="0 0 55 55" fill="none" xmlns="http://www.w3.org/2000/svg">
<path d="M55 27.5C55 31.0828 54.3153 34.5052 53.0682 37.6447C52.4015 39.3239 51.5742 40.9223 50.6044 42.4196C49.3967 44.2874 47.9677 45.9991 46.356 47.5167C45.412 48.4068 44.4063 49.2295 43.3444 49.9793C38.8659 53.1424 33.4007 55 27.5 55C21.5993 55 16.1341 53.1424 11.6555 49.9793C10.3265 49.041 9.0851 47.9892 7.94578 46.8353C3.03284 41.8684 0 35.0373 0 27.5C0 19.9627 3.03284 13.1316 7.94578 8.16471C9.15245 6.94353 10.4735 5.83559 11.8912 4.85687C16.3249 1.79362 21.7025 0 27.5 0C33.2975 0 38.6751 1.79362 43.1088 4.85687C44.192 5.60334 45.2179 6.42716 46.1798 7.31951C47.8646 8.87745 49.3529 10.6453 50.6045 12.5804C51.5743 14.0777 52.4016 15.6761 53.0683 17.3553C54.3153 20.4948 55 23.9172 55 27.5Z" fill="#E4BA42"/>
<path d="M42.0073 25.0261C41.2419 22.8063 38.1035 22.8063 37.4913 24.6434C36.879 26.4804 38.9457 27.5519 42.1605 28.6237C45.3753 29.6953 47.3655 32.5275 46.9828 35.0533C46.6 37.5791 45.5284 40.8706 39.1753 40.8706C35.2047 40.8706 32.998 38.3889 31.9014 36.5277L35.5012 34.3644C35.5012 34.3644 36.7259 36.9669 39.0221 36.9669C41.3185 36.9669 42.237 36.2015 42.237 34.441C42.237 32.2978 34.8122 31.5324 33.6641 27.8583C32.5159 24.1841 34.0468 18.9792 39.4048 19.3619C42.7537 19.6011 44.6373 21.2455 45.5792 22.4452L42.0073 25.0261Z" fill="#F2F2F2"/>
<path d="M25.3208 19.7448C25.3208 19.7448 25.3208 32.6806 25.3208 34.4411C25.3208 36.2016 23.7899 37.1202 22.259 36.814C20.7282 36.5078 20.0393 34.6708 20.0393 34.6708L16.5183 37.0437C16.5183 37.0437 17.2837 40.5646 22.106 40.8709C26.9282 41.177 29.6837 38.2684 29.6837 35.8189C29.6837 33.3695 29.6837 19.7448 29.6837 19.7448H25.3208Z" fill="#F2F2F2"/>
<path d="M7.9458 4.85693V46.8354C9.08512 47.9893 10.3265 49.0409 11.6555 49.9794H43.3445C44.4064 49.2296 45.4121 48.4068 46.3561 47.5167H10.4084V7.31958H50.6044V42.4197C51.5742 40.9223 52.4015 39.324 53.0682 37.6448V4.85693H7.9458Z" fill="#F2F2F2"/>
<path d="M9.43765 40.7942C11.8472 40.7942 13.8006 38.8409 13.8006 36.4313C13.8006 34.0217 11.8472 32.0684 9.43765 32.0684C7.02806 32.0684 5.07471 34.0217 5.07471 36.4313C5.07471 38.8409 7.02806 40.7942 9.43765 40.7942Z" fill="#3F4A43"/>
</svg>
