<svg width="77" height="70" viewBox="0 0 77 70" fill="none" xmlns="http://www.w3.org/2000/svg">
<g filter="url(#filter0_d)">
<path d="M71.6369 30.7916C71.6369 47.4748 56.6565 61.0832 38.0684 61.0832C19.4803 61.0832 4.5 47.4748 4.5 30.7916C4.5 14.1084 19.4803 0.5 38.0684 0.5C56.6565 0.5 71.6369 14.1084 71.6369 30.7916Z" stroke="#46494B"/>
</g>
<path d="M55.8986 38.2326L47.4907 34.9758C47.1315 34.8375 46.7323 34.8083 46.3532 34.8927C45.9741 34.9772 45.6356 35.1706 45.3887 35.444L41.6652 39.5557C35.8215 37.0654 31.1187 32.815 28.3634 27.5333L32.9127 24.168C33.2158 23.9452 33.4303 23.6393 33.5237 23.2965C33.6172 22.9537 33.5845 22.5927 33.4307 22.2682L29.8273 14.6689C29.6585 14.3191 29.3599 14.0335 28.983 13.8613C28.6062 13.6892 28.1746 13.6412 27.7629 13.7258L19.9555 15.3542C19.5585 15.4371 19.2043 15.6391 18.9507 15.9274C18.6971 16.2156 18.5591 16.573 18.5592 16.9412C18.5592 34.3448 34.1664 48.4237 53.392 48.4237C53.7996 48.4239 54.1952 48.2993 54.5143 48.07C54.8333 47.8408 55.057 47.5206 55.1487 47.1617L56.9504 40.1053C57.0433 39.7313 56.9892 39.3397 56.7972 38.9979C56.6053 38.6561 56.2875 38.3855 55.8986 38.2326Z" fill="#08D665"/>
<defs>
<filter id="filter0_d" x="0" y="0" width="76.1369" height="69.5832" filterUnits="userSpaceOnUse" color-interpolation-filters="sRGB">
<feFlood flood-opacity="0" result="BackgroundImageFix"/>
<feColorMatrix in="SourceAlpha" type="matrix" values="0 0 0 0 0 0 0 0 0 0 0 0 0 0 0 0 0 0 127 0"/>
<feOffset dy="4"/>
<feGaussianBlur stdDeviation="2"/>
<feColorMatrix type="matrix" values="0 0 0 0 0 0 0 0 0 0 0 0 0 0 0 0 0 0 0.25 0"/>
<feBlend mode="normal" in2="BackgroundImageFix" result="effect1_dropShadow"/>
<feBlend mode="normal" in="SourceGraphic" in2="effect1_dropShadow" result="shape"/>
</filter>
</defs>
</svg>
