<svg width="55" height="50" viewBox="0 0 55 50" fill="none" xmlns="http://www.w3.org/2000/svg">
<mask id="path-1-inside-1" fill="white">
<path d="M44.9238 16.2031C44.3438 16.0022 43.7637 15.8125 43.1836 15.6339C43.2803 15.221 43.3662 14.8081 43.4521 14.3952C44.7734 7.74373 43.9033 2.39803 40.9707 0.634731C38.1455 -1.05045 33.5371 0.701692 28.875 4.92022C28.4131 5.33314 27.9619 5.76839 27.5322 6.20363C27.2422 5.91347 26.9414 5.6233 26.6406 5.3443C21.7529 0.835613 16.8545 -1.06161 13.9219 0.712852C11.1074 2.40919 10.2695 7.4424 11.4512 13.7367C11.5693 14.3617 11.6982 14.9755 11.8486 15.6004C11.1611 15.8013 10.4844 16.0245 9.85059 16.2589C4.11426 18.3235 0 21.5823 0 24.9526C0 28.4346 4.38281 31.9277 10.3447 34.0481C10.8281 34.2155 11.3115 34.3829 11.8057 34.528C11.6445 35.1976 11.5049 35.8561 11.376 36.5368C10.248 42.7307 11.1289 47.6411 13.9434 49.3263C16.8438 51.0673 21.7207 49.2817 26.4688 44.9627C26.8447 44.6168 27.2207 44.2596 27.5967 43.8802C28.0693 44.3601 28.5635 44.8176 29.0576 45.264C33.6553 49.371 38.1992 51.0338 41.0029 49.3486C43.9033 47.6077 44.8486 42.3289 43.624 35.9007C43.5273 35.4097 43.4199 34.9075 43.3018 34.3941C43.6455 34.2936 43.9785 34.182 44.3115 34.0704C50.5098 31.9389 55 28.4904 55 24.9526C55 21.5711 50.7676 18.29 44.9238 16.2031ZM30.3896 6.72816C34.3857 3.11228 38.1133 1.69494 39.8105 2.71051C41.626 3.79304 42.3242 8.16781 41.1855 13.9153C41.1104 14.2947 41.0352 14.663 40.9385 15.0313C38.5537 14.4733 36.1367 14.0715 33.709 13.8483C32.3125 11.7725 30.7871 9.78603 29.1328 7.92229C29.5518 7.50936 29.96 7.11876 30.3896 6.72816ZM17.9609 30.7447C18.5088 31.7157 19.0674 32.6866 19.6582 33.6352C17.9824 33.4455 16.3174 33.1665 14.6738 32.7982C15.1465 31.1911 15.7373 29.5283 16.4248 27.8319C16.9189 28.814 17.4238 29.785 17.9609 30.7447ZM14.7061 17.3191C16.2529 16.962 17.8965 16.6718 19.6045 16.4486C19.0352 17.3749 18.4766 18.3235 17.9502 19.2833C17.4238 20.2319 16.9082 21.2028 16.4248 22.1849C15.748 20.5221 15.1787 18.8927 14.7061 17.3191ZM17.6494 25.0084C18.3584 23.4683 19.1318 21.9617 19.9482 20.4774C20.7646 18.9931 21.6455 17.5535 22.5693 16.1361C24.1807 16.0134 25.8242 15.9464 27.5 15.9464C29.1758 15.9464 30.8301 16.0134 32.4307 16.1361C33.3438 17.5423 34.2139 18.982 35.041 20.4551C35.8682 21.9282 36.6416 23.4349 37.3721 24.9638C36.6523 26.5039 35.8789 28.0217 35.0518 29.5171C34.2354 31.0014 33.3652 32.4411 32.4521 33.8696C30.8516 33.9923 29.1865 34.0481 27.5 34.0481C25.8135 34.0481 24.1807 33.9923 22.6016 33.8919C21.667 32.4745 20.7861 31.0237 19.959 29.5394C19.1318 28.0551 18.3691 26.5485 17.6494 25.0084ZM37.0498 30.7224C37.5977 29.7403 38.1133 28.7471 38.6182 27.7427C39.3057 29.3609 39.9072 31.0014 40.4336 32.6866C38.7686 33.0772 37.082 33.3785 35.3848 33.5794C35.9648 32.6419 36.5127 31.6822 37.0498 30.7224ZM38.5967 22.1849C38.0918 21.2028 37.5762 20.2207 37.0391 19.261C36.5127 18.3124 35.9648 17.3749 35.3955 16.4486C37.125 16.6718 38.7793 16.9731 40.3262 17.3414C39.832 18.9931 39.252 20.6002 38.5967 22.1849ZM27.5215 9.62979C28.6494 10.902 29.7129 12.2413 30.7012 13.6251C28.5742 13.5247 26.4365 13.5247 24.3096 13.6251C25.3623 12.1855 26.4473 10.8462 27.5215 9.62979ZM15.0605 2.78863C16.8652 1.69494 20.8721 3.25736 25.0938 7.14108C25.3623 7.3866 25.6309 7.65445 25.9102 7.92229C24.2451 9.78603 22.709 11.7725 21.3018 13.8483C18.874 14.0715 16.4678 14.4621 14.083 15.009C13.9434 14.4398 13.8252 13.8595 13.707 13.2791C12.6973 7.87765 13.3633 3.8042 15.0605 2.78863ZM12.4287 32.2067C11.9775 32.0728 11.5371 31.9277 11.0967 31.7715C8.80859 31.0237 6.20898 29.8408 4.3291 28.2895C3.24414 27.5083 2.51367 26.303 2.30957 24.9526C2.30957 22.9103 5.7041 20.2989 10.6025 18.5244C11.2148 18.3012 11.8379 18.1003 12.4609 17.9106C13.1914 20.3323 14.0723 22.7094 15.0928 25.0084C14.0615 27.3409 13.1699 29.7515 12.4287 32.2067ZM24.9541 43.1436C23.1816 44.8288 21.1299 46.168 18.8955 47.0831C17.7031 47.6746 16.3281 47.7304 15.1035 47.2282C13.3955 46.2015 12.6865 42.262 13.6533 36.9609C13.7715 36.3359 13.9004 35.711 14.0508 35.0972C16.457 35.6329 18.8848 36.0011 21.3447 36.1909C22.7627 38.2778 24.3203 40.2755 25.9854 42.1504C25.6416 42.4963 25.2979 42.8311 24.9541 43.1436ZM27.5859 40.4317C26.4902 39.2041 25.3945 37.8426 24.3311 36.3806C25.3623 36.4252 26.4258 36.4476 27.5 36.4476C28.6064 36.4476 29.6914 36.4252 30.7656 36.3694C29.7773 37.7868 28.7139 39.1371 27.5859 40.4317ZM41.626 43.7797C41.5293 45.1413 40.8848 46.4135 39.8535 47.2729C38.1455 48.2996 34.5039 46.9604 30.5723 43.4561C30.1211 43.0543 29.6699 42.6191 29.208 42.1727C30.8516 40.2866 32.3662 38.289 33.7412 36.1909C36.2012 35.9788 38.6504 35.5882 41.0674 35.0191C41.1748 35.4766 41.2715 35.9342 41.3574 36.3806C41.8838 38.7912 41.9697 41.3022 41.626 43.7797ZM43.5811 31.7826C43.2803 31.8831 42.9795 31.9835 42.668 32.0728C41.916 29.6399 40.9922 27.2628 39.9287 24.9526C40.96 22.676 41.8301 20.3323 42.5605 17.9329C43.1191 18.1003 43.6562 18.2789 44.1719 18.4574C49.1777 20.2431 52.6904 22.8992 52.6904 24.9303C52.6904 27.1177 48.9414 29.9412 43.5811 31.7826ZM27.5 30.1086C30.2178 30.1086 32.4199 27.8208 32.4199 24.9973C32.4199 22.1738 30.2178 19.8859 27.5 19.8859C24.7822 19.8859 22.5801 22.1738 22.5801 24.9973C22.5801 27.8208 24.7822 30.1086 27.5 30.1086Z"/>
</mask>
<path d="M44.9238 16.2031C44.3438 16.0022 43.7637 15.8125 43.1836 15.6339C43.2803 15.221 43.3662 14.8081 43.4521 14.3952C44.7734 7.74373 43.9033 2.39803 40.9707 0.634731C38.1455 -1.05045 33.5371 0.701692 28.875 4.92022C28.4131 5.33314 27.9619 5.76839 27.5322 6.20363C27.2422 5.91347 26.9414 5.6233 26.6406 5.3443C21.7529 0.835613 16.8545 -1.06161 13.9219 0.712852C11.1074 2.40919 10.2695 7.4424 11.4512 13.7367C11.5693 14.3617 11.6982 14.9755 11.8486 15.6004C11.1611 15.8013 10.4844 16.0245 9.85059 16.2589C4.11426 18.3235 0 21.5823 0 24.9526C0 28.4346 4.38281 31.9277 10.3447 34.0481C10.8281 34.2155 11.3115 34.3829 11.8057 34.528C11.6445 35.1976 11.5049 35.8561 11.376 36.5368C10.248 42.7307 11.1289 47.6411 13.9434 49.3263C16.8438 51.0673 21.7207 49.2817 26.4688 44.9627C26.8447 44.6168 27.2207 44.2596 27.5967 43.8802C28.0693 44.3601 28.5635 44.8176 29.0576 45.264C33.6553 49.371 38.1992 51.0338 41.0029 49.3486C43.9033 47.6077 44.8486 42.3289 43.624 35.9007C43.5273 35.4097 43.4199 34.9075 43.3018 34.3941C43.6455 34.2936 43.9785 34.182 44.3115 34.0704C50.5098 31.9389 55 28.4904 55 24.9526C55 21.5711 50.7676 18.29 44.9238 16.2031ZM30.3896 6.72816C34.3857 3.11228 38.1133 1.69494 39.8105 2.71051C41.626 3.79304 42.3242 8.16781 41.1855 13.9153C41.1104 14.2947 41.0352 14.663 40.9385 15.0313C38.5537 14.4733 36.1367 14.0715 33.709 13.8483C32.3125 11.7725 30.7871 9.78603 29.1328 7.92229C29.5518 7.50936 29.96 7.11876 30.3896 6.72816ZM17.9609 30.7447C18.5088 31.7157 19.0674 32.6866 19.6582 33.6352C17.9824 33.4455 16.3174 33.1665 14.6738 32.7982C15.1465 31.1911 15.7373 29.5283 16.4248 27.8319C16.9189 28.814 17.4238 29.785 17.9609 30.7447ZM14.7061 17.3191C16.2529 16.962 17.8965 16.6718 19.6045 16.4486C19.0352 17.3749 18.4766 18.3235 17.9502 19.2833C17.4238 20.2319 16.9082 21.2028 16.4248 22.1849C15.748 20.5221 15.1787 18.8927 14.7061 17.3191ZM17.6494 25.0084C18.3584 23.4683 19.1318 21.9617 19.9482 20.4774C20.7646 18.9931 21.6455 17.5535 22.5693 16.1361C24.1807 16.0134 25.8242 15.9464 27.5 15.9464C29.1758 15.9464 30.8301 16.0134 32.4307 16.1361C33.3438 17.5423 34.2139 18.982 35.041 20.4551C35.8682 21.9282 36.6416 23.4349 37.3721 24.9638C36.6523 26.5039 35.8789 28.0217 35.0518 29.5171C34.2354 31.0014 33.3652 32.4411 32.4521 33.8696C30.8516 33.9923 29.1865 34.0481 27.5 34.0481C25.8135 34.0481 24.1807 33.9923 22.6016 33.8919C21.667 32.4745 20.7861 31.0237 19.959 29.5394C19.1318 28.0551 18.3691 26.5485 17.6494 25.0084ZM37.0498 30.7224C37.5977 29.7403 38.1133 28.7471 38.6182 27.7427C39.3057 29.3609 39.9072 31.0014 40.4336 32.6866C38.7686 33.0772 37.082 33.3785 35.3848 33.5794C35.9648 32.6419 36.5127 31.6822 37.0498 30.7224ZM38.5967 22.1849C38.0918 21.2028 37.5762 20.2207 37.0391 19.261C36.5127 18.3124 35.9648 17.3749 35.3955 16.4486C37.125 16.6718 38.7793 16.9731 40.3262 17.3414C39.832 18.9931 39.252 20.6002 38.5967 22.1849ZM27.5215 9.62979C28.6494 10.902 29.7129 12.2413 30.7012 13.6251C28.5742 13.5247 26.4365 13.5247 24.3096 13.6251C25.3623 12.1855 26.4473 10.8462 27.5215 9.62979ZM15.0605 2.78863C16.8652 1.69494 20.8721 3.25736 25.0938 7.14108C25.3623 7.3866 25.6309 7.65445 25.9102 7.92229C24.2451 9.78603 22.709 11.7725 21.3018 13.8483C18.874 14.0715 16.4678 14.4621 14.083 15.009C13.9434 14.4398 13.8252 13.8595 13.707 13.2791C12.6973 7.87765 13.3633 3.8042 15.0605 2.78863ZM12.4287 32.2067C11.9775 32.0728 11.5371 31.9277 11.0967 31.7715C8.80859 31.0237 6.20898 29.8408 4.3291 28.2895C3.24414 27.5083 2.51367 26.303 2.30957 24.9526C2.30957 22.9103 5.7041 20.2989 10.6025 18.5244C11.2148 18.3012 11.8379 18.1003 12.4609 17.9106C13.1914 20.3323 14.0723 22.7094 15.0928 25.0084C14.0615 27.3409 13.1699 29.7515 12.4287 32.2067ZM24.9541 43.1436C23.1816 44.8288 21.1299 46.168 18.8955 47.0831C17.7031 47.6746 16.3281 47.7304 15.1035 47.2282C13.3955 46.2015 12.6865 42.262 13.6533 36.9609C13.7715 36.3359 13.9004 35.711 14.0508 35.0972C16.457 35.6329 18.8848 36.0011 21.3447 36.1909C22.7627 38.2778 24.3203 40.2755 25.9854 42.1504C25.6416 42.4963 25.2979 42.8311 24.9541 43.1436ZM27.5859 40.4317C26.4902 39.2041 25.3945 37.8426 24.3311 36.3806C25.3623 36.4252 26.4258 36.4476 27.5 36.4476C28.6064 36.4476 29.6914 36.4252 30.7656 36.3694C29.7773 37.7868 28.7139 39.1371 27.5859 40.4317ZM41.626 43.7797C41.5293 45.1413 40.8848 46.4135 39.8535 47.2729C38.1455 48.2996 34.5039 46.9604 30.5723 43.4561C30.1211 43.0543 29.6699 42.6191 29.208 42.1727C30.8516 40.2866 32.3662 38.289 33.7412 36.1909C36.2012 35.9788 38.6504 35.5882 41.0674 35.0191C41.1748 35.4766 41.2715 35.9342 41.3574 36.3806C41.8838 38.7912 41.9697 41.3022 41.626 43.7797ZM43.5811 31.7826C43.2803 31.8831 42.9795 31.9835 42.668 32.0728C41.916 29.6399 40.9922 27.2628 39.9287 24.9526C40.96 22.676 41.8301 20.3323 42.5605 17.9329C43.1191 18.1003 43.6562 18.2789 44.1719 18.4574C49.1777 20.2431 52.6904 22.8992 52.6904 24.9303C52.6904 27.1177 48.9414 29.9412 43.5811 31.7826ZM27.5 30.1086C30.2178 30.1086 32.4199 27.8208 32.4199 24.9973C32.4199 22.1738 30.2178 19.8859 27.5 19.8859C24.7822 19.8859 22.5801 22.1738 22.5801 24.9973C22.5801 27.8208 24.7822 30.1086 27.5 30.1086Z" fill="#61DAFB" stroke="#61DAFB" stroke-width="6" mask="url(#path-1-inside-1)"/>
</svg>
