<svg width="64" height="58" viewBox="0 0 64 58" fill="none" xmlns="http://www.w3.org/2000/svg">
<g clip-path="url(#clip0)">
<path d="M62.1284 35.2966C66.7543 16.822 48.5436 0.0387821 27.1577 3.26059C15.5478 -3.14282 0.0892334 4.09325 0.0892334 16.3702C0.0892334 19.2254 0.975545 21.8984 2.51661 24.2024C-1.78187 42.7195 16.5778 59.2615 37.9451 55.8197C40.4364 56.9906 43.279 57.6577 46.2999 57.6577C59.4721 57.6577 67.9067 45.5155 62.1284 35.2966ZM32.2839 47.9094C26.0504 47.9094 19.9607 46.5729 16.3569 41.998C10.9858 35.2469 18.0683 31.869 21.5444 34.4426C24.4455 36.6165 23.5352 41.875 32.055 41.875C35.8105 41.875 40.447 40.451 40.447 37.1417C40.447 30.4828 23.8254 33.6336 17.2166 26.3739C14.7892 23.7151 14.3314 19.0243 17.3124 15.6227C22.5079 9.68057 37.7535 9.31864 44.309 13.806C50.3615 17.9693 48.7273 23.4951 43.8432 23.4951C37.9691 23.4951 41.0565 16.6635 31.5733 16.6635C24.6984 16.6635 21.9942 21.009 26.8356 23.1237C33.2793 25.967 50.1246 25.08 50.1246 36.3776C50.1033 44.3186 41.4824 47.9094 32.2839 47.9094Z" fill="#03A9F4"/>
</g>
<defs>
<clipPath id="clip0">
<rect x="0.0892334" y="0.886719" width="63.8783" height="56.772" fill="white"/>
</clipPath>
</defs>
</svg>
