<svg width="120" height="120" viewBox="0 0 120 120" fill="none" xmlns="http://www.w3.org/2000/svg">
<path d="M60 120C93.1371 120 120 93.1371 120 60C120 26.8629 93.1371 0 60 0C26.8629 0 0 26.8629 0 60C0 93.1371 26.8629 120 60 120Z" fill="#55ACEE"/>
<path d="M96.7518 43.1199C94.1805 44.2601 91.4147 45.0312 88.514 45.3756C91.4756 43.6012 93.7484 40.7936 94.8212 37.4427C92.05 39.0866 88.9793 40.2792 85.7139 40.922C83.0978 38.1358 79.3704 36.3945 75.243 36.3945C67.324 36.3945 60.9013 42.8172 60.9013 50.7362C60.9013 51.8603 61.0286 52.9545 61.2746 54.0048C49.3554 53.4069 38.7871 47.6976 31.7131 39.0182C30.4788 41.1359 29.7708 43.6012 29.7708 46.2291C29.7708 51.2036 32.3045 55.5952 36.1507 58.1664C33.8008 58.0926 31.5879 57.4477 29.6552 56.3706C29.6542 56.4316 29.6542 56.4926 29.6542 56.5525C29.6542 63.5014 34.5998 69.2973 41.1594 70.6139C39.9572 70.9434 38.6876 71.1177 37.3817 71.1177C36.4555 71.1177 35.5581 71.0289 34.6832 70.8621C36.5079 76.5585 41.8033 80.7052 48.0805 80.8218C43.1712 84.669 36.9881 86.961 30.267 86.961C29.1119 86.961 27.9675 86.8937 26.8477 86.76C33.1912 90.8307 40.7316 93.204 48.8303 93.204C75.2098 93.204 89.636 71.3509 89.636 52.3972C89.636 51.7758 89.6221 51.1566 89.5943 50.5426C92.3987 48.5212 94.8298 45.9959 96.7518 43.1199Z" fill="#F1F2F2"/>
</svg>
