<svg width="60" height="54" viewBox="0 0 60 54" fill="none" xmlns="http://www.w3.org/2000/svg">
<path d="M30.0837 0.223877C13.9166 0.223877 0.806152 12.0733 0.806152 26.6854C0.806152 41.2975 13.9166 53.147 30.0837 53.147C46.2508 53.147 59.3613 41.2975 59.3613 26.6854C59.3613 12.0733 46.2508 0.223877 30.0837 0.223877ZM43.4515 20.8558C43.4645 21.1162 43.4707 21.3778 43.4707 21.6407C43.4707 29.6665 36.7116 38.9213 24.3507 38.9217H24.3511H24.3507C20.5556 38.9217 17.0242 37.9163 14.0502 36.1934C14.576 36.2495 15.1112 36.2774 15.6531 36.2774C18.8017 36.2774 21.6993 35.3067 23.9996 33.6775C21.0578 33.6283 18.5775 31.8723 17.7215 29.4589C18.1312 29.53 18.5525 29.5687 18.9845 29.5687C19.5978 29.5687 20.192 29.494 20.7567 29.3547C17.6818 28.7983 15.3654 26.3422 15.3654 23.4011C15.3654 23.3737 15.3654 23.3491 15.3663 23.3236C16.2719 23.7787 17.3074 24.0524 18.41 24.0831C16.6056 22.9949 15.4195 21.1348 15.4195 19.0275C15.4195 17.9147 15.7523 16.8722 16.3295 15.9746C19.6434 19.6497 24.596 22.0667 30.1811 22.3207C30.0658 21.8757 30.0064 21.4122 30.0064 20.9357C30.0064 17.5828 33.0161 14.8626 36.7272 14.8626C38.6602 14.8626 40.4061 15.6011 41.6324 16.7817C43.1634 16.5088 44.601 16.0032 45.8997 15.3076C45.3971 16.7252 44.3321 17.9147 42.9445 18.6669C44.3039 18.52 45.5995 18.1941 46.8034 17.7104C45.9041 18.9286 44.7636 19.9986 43.4515 20.8558Z" fill="#1DA1F2"/>
</svg>
